<svg xmlns="http://www.w3.org/2000/svg" width="1365.3" height="1365.3">
  <path d="M111 1363c-1-1-2-20-2-79v-77H56c-52 0-56-1-56-5s4-5 56-5h53v-14l-1-15a706 706 0 0 0 1-81v-68H56c-56 0-60-1-54-6 2-2 7-2 43-2a270 270 0 0 0 50 0c5 8 14-1 15-16l1-15c1-2 1-3-2-4-2 0-2-1-2-4 1-3 1-4-1-5-3-1-5-4-5-9l-2-4-2-6c0-4 0-6-2-6l-2-3-2-6-4-14c-2-12-4-18-5-18l-3-6-2-8-2-12-3-10-2-9-2-9-1-5-2-6-1-3H34c-30 0-34 0-34-4s4-5 32-5c31 0 30 0 32-9l-1-4c-2 0-2-2-1-6l-1-6-1-6c1-4 0-6-1-7-2-2-2-4-1-16 1-9 0-14-1-14l-1-41a264 264 0 0 1 3-44c0-4-1-4-4-4l-4-2c-1-2-16-1-19 1h-5l-13-2c-12 0-15-2-12-7l1-2h19l19 1c2 4 16-1 16-5l2-4c2-1 2-4 1-9l1-7c2-1 2-7 1-10v-5c1-2 2-4 1-6l1-5 2-10 2-10 2-5 1-5v-5l1-5 3-11 2-11 2-8 3-10 2-6 2-7 2-7-1-3H45c-36-1-42-1-42-3l-2-2-1-2 1-2 2-2c0-1 5-2 44-2 49 0 50 0 50-9 0-4 3-9 5-11 2-1 2-3 1-5 0-3 0-4 2-4 3-1 3-2 2-5l1-4c4 0 6-7 3-9-1-1-2-10-2-68v-67H56c-52 0-56-1-56-5s4-4 55-5l53-2 1-90v-90H56c-52 0-56-1-56-5s4-5 56-5h53V54c0-41 1-51 2-52 2-2 6-3 4-1 0 1 0 2 2 2 1 0 2 6 2 51v51h191V54c1-49 1-54 5-54 2 0 5 10 4 12-2 3-2 26 0 27l1 10-1 9c-2 1-2 14 0 16v5c-1 2-2 7-1 14v12h36a415 415 0 0 0 46-2c5 0 6 0 7-3 1-2 3-3 6-3 4 0 20-9 24-14l5-3 4-2c1-2 3-2 4-1 3 1 27-11 29-14 0-2 2-3 4-3l3-1 5-1c2 1 4 0 8-4l8-5h3V26c1-21 2-26 5-26 4 0 5 4 5 23 0 20 1 22 7 19 1-1 4-2 6-1 2 0 3 0 4-2 0-2 2-3 6-4l9-2 8-3 6-2 11-3c12-2 19-4 21-6l8-2 7-2 8-2 8-3h10l11-3 12-2h7l5-1a1288 1288 0 0 1 240 7l8 2 7 2 3 1 5 2c0 1 5 3 12 3l15 4 6 2 2 2c1 3 2 3 5 2 3 0 4 0 4 2l1 2a441 441 0 0 0 16 3l3 2c2 0 3 1 3 2l8 5 26 13c8 4 8 0 7-42 0-14 0-15 2-15l2-2c-2-2 2-1 4 1s2 7 3 34c0 36 0 35 5 35 3 0 4 0 5 2 0 2 2 3 4 4 7 1 11 4 11 6 0 3 9 9 14 9 3 0 4 1 4 3s6 6 10 6c2 0 3 1 3 2 1 2 10 2 69 2h68V54c0-50 1-54 5-54s5 4 5 54v51h51c42 0 52 1 53 2 3 2 3 7 1 6h-1l-47 2-52 1-5 1v74c0 52-1 75-2 77-2 2 0 5 3 5 2 0 3 2 4 7l3 8c2 0 2 1 2 3 0 5 3 5 48 5 46 0 48 1 48 5 0 5-2 6-46 6-46 0-45-1-41 8l3 7c0 2 1 3 2 3l1 4c0 3 1 5 3 5 2 1 2 3 3 7 2 14 2 16 4 17 2 2 4 6 4 12l2 10a660 660 0 0 1 3 12l1 5c4 8 4 10 3 11v5l2 9c0 4 1 7 2 7v4l1 5 1 11c-1 7-1 8 1 8s3 13 1 14l-1 9 1 8h5l23 1c18 0 22 1 22 5s-4 5-21 5l-19 1-6 1h-5l1 22c1 19 1 21-1 21s-2 1-1 10l-1 12-1 5c1 2 1 4-1 4l-1 6-1 8-1 5c1 2 1 3-1 4-2 0-2 2-1 4l-1 5-1 9c0 5-1 8-2 8-2 1-2 3-2 7s-1 6-2 7c-2 0-2 2-2 8v8h33c33 1 37 1 37 5 0 5-4 5-39 5h-35l-2 3c-1 2-3 5-3 8l-3 4c-2 0-3 3-2 6l-1 3c-1 1-3 5-3 9-1 4-2 7-4 8-3 2-12 20-12 24l-1 4c-2 2-2 12-1 46v44l51 1c52 0 55 0 55 5 0 4-3 4-55 5h-51v15c0 9-1 16-2 17v9c2 1 2 22 0 23v11c1 1 2 20 2 51v50h51c44 1 52 1 54 3 5 5 1 6-54 6h-51v178h103l2 3c4 6 2 7-54 7h-51v38a521 521 0 0 0-2 118l-3 1c0 2-1 1-2 0-2-2-3-10-3-80v-77h-192l-1 4-1 77c0 75-1 77-5 77s-5-2-5-81v-77H859v64a693 693 0 0 1-3 78c0 15-1 18-5 15-1-2-2-11-2-80v-77H690v70c0 72 0 73 6 70 2-1 2-3 2-10-1-5-1-8 1-8v-8l1-9 1-6 1-13 1-7h20v79h-94a1279 1279 0 0 1-111-1c-4 2-7 0-6-4 0-3-6-6-11-5-3 1-3 1-4-2-1-2-1-2-5-2-3 1-4 1-4-2-1-2-2-2-5-2-3 1-4 1-5-1a336 336 0 0 0-62-30c0-3-6-7-10-7l-4-2c0-2-2-3-4-3-3 0-5-1-5-2l-4-2-2-2c0-3-7-7-11-7-3 0-4-1-4-3-1-3-1-3-5-3-3 0-4 0-5-3 0-2-1-3-4-3-2 0-3-1-3-2 0-3-8-9-12-9-2 0-3-1-4-3l-4-4-10-5c-6-5-6-4-6 53 0 53-1 56-5 56s-5-3-5-64c0-64 0-64-6-64-2 0-3 0-3-2a79 79 0 0 0-31-27l-76-1h-74v5l-2 6v9c3 2 2 134 0 136-3 3-4 3-6 0zm561-15 3 1c0 1 1 2 3 2h3l1-12c1-13 0-94-2-116l-1-16H521v103h2l4 3 6 2h5v-4c1-3 2-4 4-5 2 0 2-1 1-4 0-2 0-5 2-6l2-5 2-5c3-4 7-14 7-19 0-3 1-4 9-13 5-5 5-5 8-3l6 2h4v6c0 4-1 7-2 7l-2 7-2 6-3 8c0 4-1 9-3 11l-2 10c-1 3-2 5-4 6-6 1-2 11 6 12 4 0 8 2 10 3l6 2 3 1 7 2 8 2 12 3 12 2 5 2 5 1c0 2 4 3 5 1h9l4 2 4 1c0 2 5 2 6 1l5-1zm-162-93v-48h-37c-40 0-47 0-49 3l-6 11c-3 5-5 9-5 12 0 2 0 4-2 5l-2 2c0 2-1 3-2 3-2 1-2 8 1 9l3 1c3 5 27 19 48 28a4092 4092 0 0 1 48 23l3-1zm-135-56c1-1 8-2 17-2 17 0 19-1 18-7-1-3 0-3 2-3l5-4c4-6 12-6 20-1l-1 7c-2 9 8 16 14 10 1-1 14-2 31-2h29v-178H321l-1 6-1 8a394 394 0 0 0 0 63 819 819 0 0 0 1 84c0 4 4 8 7 8 1 0 3 1 3 4l1 5h14l14 2h16zm219 0c1-1 18-2 43-2h42v-178H521v178h33a230 230 0 0 1 40 2zm307 0 4-2 4 2h17c1-1 24-2 60-2h59v-178H859v178h11l12 2h19zm186 0c1-1 31-2 82-2h80v-178h-194v77l1 89 1 12h11l13 2h6zm-838-2c3-1 2-5-2-9-3-3-4-6-4-7 0-3-7-10-10-10l-2-2c0-1-1-3-3-3-3-1-4-3-4-7 0-3-4-7-7-7s-7-4-8-9c0-2-1-4-3-4-4-1-6-3-6-7 0-2-1-3-3-4l-2-2-4-5c-3-2-4-4-4-7 0-4-4-9-8-9l-2-2-2-3-2-2-2-3-2-2c0-3-4-10-5-10l-1-3-3-5-3-5c0-4-5-13-8-13-2 0-2 0-2-3 1-2 0-4-2-8l-4-5c0-8-17-25-21-21l-1 89v88h130zm600-89v-89H690v177l80 1h79zm-587 6 3-4c0-4 3-6 6-6 1 0 3-1 3-3l4-2c3 0 6-3 6-6 0-2 1-2 4-2 4 0 8-4 8-7 0-2 1-3 3-3l7-1 3-2v-59H189v4c0 2 0 3 3 3 2 1 3 2 3 4l2 4 2 5c0 5 6 14 10 16 2 1 3 2 3 5 0 4 4 9 7 9l4 6c1 3 3 5 4 5l1 4 4 4c2 0 3 1 3 3 0 4 1 6 4 6 2 0 2 1 2 4s2 5 6 6c3 0 4 2 6 7 0 3 5 3 9 0zm-65-103c1-2 45-2 46 0h11c1-1 11-2 27-2l28-1V834c-2-2-189-1-190 1l1 4 1 5 1 3 3 9 2 9 1 6 3 8 2 11c0 6 1 9 3 10l1 2 2 6 2 8c0 6 3 15 5 16l2 4c0 2 1 5 3 6l4 7 1 5c1 1 3 2 3 4 2 4 27-6 29-12 0-2 1-2 3-1 2 0 6-1 11-4l10-4 2-2c3-4 14-1 14 3l1 4 2 4-2 4-1 3c0 2-6 6-10 6a102 102 0 0 0-29 14l-2 2-7 2c-2 2-5 3-7 3-5 1-3 14 3 19 1 1 3 3 3 6 1 3 3 4 6 4l5 2h7zm217-1c2-1 5 0 5 1h14a454 454 0 0 1 74 1l3-1V834H319c-2 1-2 8 0 9l1 13-1 13-2 4 2 5 1 65c0 50 0 65 2 66l40 1a548 548 0 0 1 52 0zm160 1 12-2 12 2h11c1-2 17-2 35 0h8c2-2 8-2 9 0h18l1-27v-26h-3l-4-3c0-2-5-6-9-6l-3-2-3-2-2-2-4-4-6-5c-2-2-5-3-7-3s-3-1-3-3c0-3-16-19-20-20-3-1-7-5-7-8l-2-4c-2 0-3-1-3-3 0-1-1-3-3-3l-2-4-2-3c-1 0-2-2-2-5 0-2-1-4-3-4-2-1-3-2-3-4 0-4-10-25-12-25l-3-5-1-6h-52v175h20c11 0 20 1 21 2h12zm204-1h71v-8h-7l-8-3h-18c-7 1-8 1-8-1s-1-2-7-1l-6-1c0-2-6-2-9-1h-3l-10-2-11-2-11-3-12-3-6-2c-3 0-5-1-5-3-1-2-2-3-5-2s-4 0-5-1l-4-2-7-4c-3-2-4-3-7-2l-5-1c-5-4-6-1-5 21v21l5 1c7 1 82 0 83-1zm197 0c22-1 28-1 30 1h5l19-2h16v-55h-4c-2-1-5 0-6 1l-4 1c-2-1-22 7-23 9l-3 2-5 1c-4 4-8 5-11 5-2-1-4-1-5 1s-8 5-10 4c-3-1-6 1-6 3 0 1-1 2-4 1-5-1-11 0-11 3l-10 3-12 3h-4l-5 1-13 2c-8 0-12 1-13 2l-7 1c-3-1-6 0-7 1-2 2-8 3-9 1l-8-1-6 1v11l10 1c12 1 72 0 106-1zm163 1a837 837 0 0 1 105 1l6-1V834h-29l-29-1-2 3c-2 4-13 15-16 15s-19 17-20 21c-1 3-2 4-5 5-5 1-12 7-12 9 0 3-6 9-9 9-2 0-4 1-5 4 0 2-2 4-3 4l-3 2-4 2-4 2c0 2-1 3-4 3-2 0-3 1-4 3l-2 2-3 2-4 2c-5 0-8 3-8 6 0 2-1 2-4 2-4 0-18 8-18 11l-2 3c-4 1-5 9-3 40l1 27 34 1a3148 3148 0 0 1 47 0zm-299-60 1-19c0-23 1-26 5-27h4v-35c0-42 12-36-80-37h-79v5c-1 4 5 13 9 13l1 4-1 5c-2 0-6 8-6 11l-2 3c-6 2 0 37 7 37l2 2c1 2 2 3 5 3s4 1 4 2c0 2 8 7 18 12 8 4 12 4 12 0l2-4c2-1 3-3 3-5l1-4 2-6 2-7c2-1 3-4 3-7 0-4 5-6 7-2l3 1c8 0 11 13 6 19l-3 10c0 4-2 9-3 11-2 4 0 5 9 7l11 2 7 2 5 1 6 1c4-1 5-1 6 1 0 2 2 2 8 1l8 1c1 2 14 1 17-1zm35 1 5-1 4-2 7-1h7l6-1c4 1 5 1 6-1s2-2 5-1l5-1 9-2c11-1 12-3 9-19-1-6-2-9-4-9-3-1-5-15-2-21l2-4 6 1c7 1 9 3 12 10 0 3 2 5 3 5s2 1 2 3l2 5c1 2 2 4 1 5l2 8c3 7 8 7 22 1l11-5c20-8 44-21 44-24l3-4c3-3 0-13-5-15-3-2-4-3-4-5s-1-4-3-5l-2-4-4-5c-4-2-4-3-4-8 0-10 11-14 20-6 4 4 7 2 6-6v-6H859v37c-1 35 0 45 3 45 1 0 1 10-1 11-1 1 0 17 2 19l1 4c0 4 8 5 10 2zm200-76c3-2 7-6 7-8 2-3 7-7 11-7 3 0 5-2 5-5 0-2 1-3 3-3 4 0 7-2 7-5 0-2 1-3 3-3 6 0 13-9 9-11-3-2-60-2-63 0s-1 35 2 35l2 2 2 3 2 4c2 3 4 3 10-2zm-411-8c1-1 3-3 5-3l7-6 6-6-1-10-1-9h-23c-14-1-24 0-24 1-3 2 6 20 11 20l2 2 2 4 2 3c0 5 10 8 14 4zm-154-45c1 0 2-17 1-79v-79H321v158l44 1c47 1 141 0 144-1zm155 1h14l3-4c2-5 2-19 0-21l-1-4 1-4 2-6-2-6a215 215 0 0 1 1-56c-2-3-3-18-1-20 2-1 2-26 0-29l-2-5c0-2-2-2-7-2-11 0-15 1-17 6-1 3-3 4-5 5-2 0-3 1-3 4 0 2-1 3-3 4-7 2 4 13 12 13 5 0 7 3 8 12v8h-8l-8-1c0-1-7-4-13-5s-8 1-8 5l-2 4-3 9-2 10-1 6c0 4-1 6-2 7-3 1-3 5-1 7l2 12v12h5l7-1c10-5 17-7 22-5l5 1v15l-5 1c-4 1-23 10-28 14-8 6 5 16 20 15l20-1zm184-1a7589 7589 0 0 1 2-102c-1-64 1-57-16-57h-14l-2 3-2 7c0 4-1 5-7 8-3 1-5 3-5 4 0 4-4 8-7 7h-4l-9 4-8 4c-1 3-22 4-25 2l-4-1c-3 1-10-1-11-4l-3-2-7-3-7-2c-3 0-12-10-12-13l-3-9-6-12-3-6-2-4c0-3-1-4-3-4-3 0-4 18-2 19l1 19 1 80v62l26 1c32 1 129 0 132-1zm196 0 1-79v-79H859v158l71 1c68 1 110 0 114-1zm94-1c6-6-6-21-17-21-3 0-4 0-4-2 0-4-2-6-7-6-2 0-3 0-3-2l-4-5c-4-3-6-9-3-11l1-3c0-4 11-5 16-1l7 2c2 0 5 1 6 3l5 3 4 4c0 2 2 4 3 4l4 2c0 2 2 3 3 3l6 2c2 1 3 1 4-1l4-3 2-4c0-2 1-3 3-4 2 0 3-2 3-3l2-4c4-1 8-6 8-9 0-2 1-3 2-3 3 0 5-4 5-9l2-4 2-2c0-2 1-3 2-3l2-3c0-2 1-3 3-4 2 0 2-2 2-4 0-3 1-4 3-5s4-3 4-5l3-6c5-3 5-6 0-7l-4-4-7-4-15-7-15-5h-4l-1-6c-2-12 18-20 26-10 3 4 10 6 16 6 3 0 5 1 6 3l6 5 5 2 4-3 3-7 2-4c3-3 3-8 0-11l-4-2h-87l-87 1v158l38 1 40 1 5-3zm109 2c2-2 2-5 2-31v-30h-4c-2 0-3 1-3 3l-3 4-2 3-2 2-2 3-2 2-2 3-2 2-5 6-6 7-1 5c0 3-1 4-3 4s-3 1-4 4c0 2-1 4-3 4s-3 1-3 4v4h19l20 1c1 2 4 2 6 0zm-937-57v-80l-1-22-85-1a1093 1093 0 0 0-104 1c-2 2-2 112 0 115 1 3 9 5 11 3 1-1 4-2 8-1l6-2 7-1h6c2-3 25-2 25 1l1 3 1 6-1 5-1 3c0 3-6 4-18 3-4 0-5 1-6 2 0 2-2 2-4 1l-5 1-7 1h-7c0 1-2 2-5 1l-5 2-6 2c-6 0-7 5-2 10l3 4h94l94-1zm258 52-1-7c-2-1-2-6-2-12 0-8 0-11-2-11-1 0-2-4-2-22s1-22 2-22c3 0 4-6 2-8v-4l1-6v-4l3-7 3-9 1-4 4-5c2-3 3-5 2-7 0-2 0-4 3-6l3-6c0-3 1-4 3-5 3-1 4-6 1-9l-35-1-33 1-1 78 1 79c0 2 6 2 23 2l23-1zM347 656a1310 1310 0 0 1 133 0l17-2h13V499H321l-1 14-2 16c-1 1-1 3 1 5v6c-3 6-3 17-1 21s2 5 1 7c-2 3-2 19 0 21 2 1 1 9-1 10s-3 6 0 7c2 1 2 15 0 16-1 1-1 15 1 16l1 8c0 6 0 8 2 8l5 2c2 2 19 2 20 0zm253-1 3-4 2-4c0-2 13-15 16-15s14-10 14-12 1-3 3-3c3 0 6-2 6-5 0-2 1-3 4-3 4 0 12-4 12-7 0-1 1-2 3-2 4-2 3-7-2-8-2 0-4-1-4-3l-4-2c-3 0-4-1-4-3s-1-3-3-4c-2 0-3-1-4-3-2-3-8-7-12-8l-4-2c0-2-2-3-3-3-2 0-4-2-5-3l-2-5-4-3c-7-2-9-3-10-6-1-4-11-12-16-12-2 0-3-1-4-3 0-2-2-3-3-3l-5-2-4-3-3-4c-1-3-2-4-5-4-2 0-3-1-4-3 0-3-2-4-8-6-2 0-3-1-3-3 0-3-2-4-10-5l-10-2c-7-4-7-7-7 79l1 79h27l29 1c1 3 22 2 23-1zm238 1 6-1h5v-24c0-14 1-26 2-26 2-2 1-13-1-14-3-1-11 3-11 6 0 2-1 3-3 3l-6 2-3 2v24c0 19 1 25 2 27 2 3 8 3 9 1zm207-77v-77h-43c-38-1-43-1-43-3 0-3-7-5-9-3l-4 3c-3 0-14 10-14 13 0 2-7 9-10 9s-14 10-14 13-4 6-7 6c-4 0-6 3-6 7 0 3-1 4-4 4-2 0-3 1-4 3-2 4-9 10-13 10-3 1-4 2-5 5s-2 5-6 6l-4 2v77h15l16 2 78 1h77zm-736-1v-76h-12l-14-2-69-1h-67l-3 5-4 6-2 8-3 11-2 10-2 7-2 8-2 8-2 6-3 7-1 5-1 6-1 6c1 3 1 4-1 5s-2 2-1 3l2 5c0 4 6 8 12 7l5 1c0 1 2 2 9 1h9l9 1 8 1s2 3 6 5c6 4 8 11 4 13l-2 3c0 3-6 4-7 1-1-1-2-1-4 1h-6c-2-2-6-2-12-2l-11-1c-11-7-24 4-20 17 1 1 20 2 95 1h95zm932 74 2-6 3-9c1-4 2-8 5-13l2-8 2-8 3-13c0-6 2-11 2-11 2 0 2-6 0-8l-5-1c-2 0-3-1-3-2s-5-2-6-1c-1 2-6 2-6 0-1-2-3-2-10-2-6 1-9 1-9-1l-8-1c-6 1-8 1-8-1l-2-3c-5-3-4-9 1-13 6-4 21-6 25-3s10 3 13 1l5-2c3 0 4-29 1-32l-2-8v-8h-67l-68 1c-1 2-34 2-36 0l-10-1h-8l-1 12v143l92 1h92zm-519-75 9-4 6-4 3-1 5-2h18c11-1 16 0 19 4l6 2c4 0 5 1 5 2l2 3c2 1 5-1 5-4s1-4 3-4c4 0 12-6 12-9 0-4 4-8 8-8s9-4 9-8c0-2 1-3 4-4 11-2 15-11 14-29l-1-12h-11l-12 1a997 997 0 0 1-122-1h-14l-1 28v28l2 3 6 2c2 1 4 2 6 5 1 2 3 4 5 4 3 0 4 1 5 4 1 6 4 7 9 4zm-43-57v-21h-46v6c0 6 0 6 6 7 3 0 5 2 6 4 1 3 3 4 5 4s3 1 5 4c1 3 3 5 6 5 2 1 4 2 5 5 1 2 3 3 5 3l3 2c3 9 5 1 5-19zm47-29c1-1 10-2 25-2a113 113 0 0 1 32 3l6-1 6-2c4 0 7 1 7 2h17c1-1 7-2 15-1h15V307H690v151l1 31h14l14 2h7zm305 0 8-2h6v-79h-3c-2 0-3 1-3 4s-1 3-4 3c-5 0-11 6-11 11 0 2-1 3-3 3-4 0-10 6-10 10 0 2-1 3-4 3-4 0-10 5-10 8 0 2-1 3-2 3-4 0-10 5-10 8s0 4-3 4-11 8-11 11c0 1-1 2-3 2-4 0-10 6-9 8l28 1c16 0 26 1 27 2h17zm87 0c1-1 26-2 66-2h65v-27c0-31 0-31-11-31l-8 2-9 2-11 3c-5 3-7 2-13 0l-5-3v-5c0-9 2-12 9-13l6-2 8-2c4 0 7 0 7-2l8-2 8-3h5c9 2 16-8 9-12l-2-7-2-8-3-10c-3-18-7-29-9-30s-3-1-2-4 0-5-7-20l-4-8h-13l-16-2c-4-2-8-1-8 2-1 3-6 6-10 6-2 0-11 5-12 7-3 5-19-3-20-10l-1-3h-85l-2 2c-4 6-1 50 3 50s19-12 22-17c1-2 2-3 5-2 4 0 9-3 9-6 0-1 1-2 4-2 5 0 8-1 8-4 0-2 1-3 2-3l7-1h5v4l-2 6-3 3c0 2-5 7-8 7l-2 3c-1 4-3 6-6 6s-26 24-28 29l-4 5c-4 1-7 5-11 10-2 4-2 88 0 91l26 1c15 0 25 1 26 2h9zm-651-1 22-1h21v-9c1-9-1-12-5-12s-25-21-26-26c-1-3-2-4-4-4-2-1-3-2-3-5s-1-6-3-8c-3-3-3-3 2-8l4-6c0-2 7-2 8 0l4 2 6 2c6 3 9 4 13 4h4V305l-4-1-5 1c-2 2-19 2-22 0h-6c-2 1-22 2-78 2h-76v40a419 419 0 0 0 0 54l-2 6c0 4 1 7 2 7v32c-1 1-2 9-1 22v21h72a4916 4916 0 0 1 77 1zm-158-67v-65h-7c-8 1-15-1-16-5l-4-2c-2 0-3-1-3-3 0-3-6-7-10-7-2 0-3-1-3-4-1-3-3-5-10-7l-3-3-2-2-5-3c-3-1-10 3-10 7l-2 2c-4 0-13 13-13 18 0 3 0 4-2 4-3 0-16 18-17 24-1 5-4 10-6 11l-1 5c0 2-1 3-3 3-3 0-9 10-9 14l-3 6c-5 6-7 11-7 13l-2 6c-6 5-4 7 11 10 2 0 3 1 3 2 0 2 7 5 11 5l3 2 7 3 8 4 6 2c7 0 11 3 10 7-2 11-7 15-15 13-4-1-6 1-5 4 0 2 8 2 50 2h49zm370-25v-91h-21c-12 0-22-1-23-2h-10c-1 1-22 2-53 2h-51l-1 62v62l4 2 8 3c3 0 4 1 4 3l4 4 10 7c3 2 8 3 10 3 3 0 4 1 4 3 0 3 3 5 7 5l4 2c0 3 7 8 10 8 2 0 3 1 3 2 0 3 6 7 11 7l3 3 4 2 4 2c0 2 5 2 35 2h34zm223 87c3-2 5-4 5-6 0-3 1-4 4-4 5-1 10-5 10-9 0-3 5-7 9-8 3 0 4-1 4-3 1-2 2-3 4-3 4 0 8-4 9-8 1-3 2-4 5-4 4-1 5-2 7-5 1-3 3-5 5-5 5-1 7-3 8-6 1-2 2-3 5-4 2 0 4-1 4-3 0-1 2-3 4-3l3-4 4-3c3-1 5-2 5-4 1-3 3-4 7-4 2 0 3-1 4-3 0-1 1-3 3-3l5-2 5-4 4-4c0-2 2-3 3-3l2-2 4-2c1 0 3-1 3-3l3-4c5 0 10-15 7-19l-2-22v-21H859v90c0 106-3 93 20 92h19zm-767-88c6-12 10-22 10-25s1-4 3-4c2-1 3-2 3-5s0-4 2-5c2 0 3-2 4-4l4-7c3-3 6-7 6-11l2-3c2 0 7-6 7-10 0-3 1-4 3-5s3-2 3-6v-5h-63v54c0 68-1 68 16 36zm54-101c6 0 8-2 10-10l5-3c4-1 7-4 7-7 0-1 1-3 3-3 2-1 3-3 3-6 0-4 1-4 4-4s6-4 6-8c0-2 1-3 2-3 3 0 7-4 7-7 0-4 7-12 10-12s10-7 10-10c0-4 20-23 24-24 2-1 3-2 4-5 0-3 1-3 4-3 4 0 9-5 10-9l4-4 3-4 3-2 3-1-1-28v-28H119v180l16 1h54zm120-25c0-20-1-26-2-26-3 0-18 14-18 17 0 4-4 9-8 9-3 0-5 3-5 8l-2 2c-4 0-6 3-6 7l-2 3c-2 0-4 2-3 4s5 2 23 2h23zm201-49a859 859 0 0 0-1-84c3-2 0-11-7-25-3-6-15-2-31 10l-8 5-3 2c-1 2-2 2-3 1-4-1-14 5-14 8 0 2-1 2-3 2-4-1-7 0-7 3 0 2-1 3-3 3-5 0-11 4-11 6s-1 3-3 3c-4 0-11 4-11 7 0 2-1 2-3 2s-4 1-4 3l-3 3-4 3-4 3c-2 0-4 1-4 3l-2 3c-6 0-1 10 6 11 3 0 4 1 4 5 0 3 1 4 3 5 3 0 10 7 10 10l2 3c3 1 7 5 7 7l2 2c5 2 1 20-4 21-12 3-12 3-16-2l-4-7c0-3-1-4-4-5s-4-2-5-5c0-2-1-4-4-5-4-2-5-3-5-6 0-4-2-6-8-9-3-1-5-3-5-5-1-6-10-3-12 4 0 2-2 3-4 4-5 1-11 6-11 8 0 3-6 9-9 9-4 0-9 37-5 41l1 14 1 13 95 1h94zm169 74 1-82c0-55 1-82 2-83 3-4 0-6-10-6h-10l-1-4c0-3-1-3-8-6h-53a400 400 0 0 0-66 1c-5 1-2 19 3 19 1 0 2 1 2 3 0 4 3 11 6 11 2 0 3 10 2 16 0 3-1 4-3 4l-3 2c-1 1-13 1-15-1h-4c-2 1-3 124-1 126 1 2 157 2 158 0zm170-90v-91h-10c-7 0-11 0-14 2-7 3-17 4-19 1l-2-3-47-1a609 609 0 0 0-62 2l-4-1v22c-2 31-2 158-1 159l80 1h79zm196 17a900 900 0 0 1 2-93c2-2 1-12-1-14-3-1-65-2-73-1-7 1-11 6-12 14l-5 14c-1 2-10 4-16 3l-5-1-1-7v-7l5-7 3-6-3-2-42-1h-39l-1 4v7c1 2 2 33 2 86v83l4 1 93 1h89zm116 71 4-2c5 0 14-6 15-9 1-2 2-3 5-3s5-1 5-3l4-3c5 0 6-11 1-11-2 0-3-1-3-2l-2-3-2-3c0-5-4-11-7-11-2 0-2-1-2-3 0-3-1-4-4-5l-4-4-5-6-5-7-2-4c-5-2-11-8-11-11 0-4-28-32-32-32l-11 9-12 10c-3 0-9 7-13 13-3 7-6 9-16 9h-9l1 41 1 42c1 2 104 0 104-2zm88-115v-64h-119v3c-1 2 6 9 9 9l3 2c0 2 2 3 3 3l6 2c9 9 12 12 12 14s16 19 19 19 14 11 14 15l2 4c5 2 7 3 7 6l4 5c2 1 3 3 3 5 0 3 2 6 6 6 1 0 2 1 2 3 0 3 1 4 3 5l2 2 3 3c3 2 6 8 7 14 0 2 1 3 3 3l4 4c0 1 1 2 4 2l3-1zm-184 9 2-4c0-2 1-3 2-3l3-3c1-3 16-18 20-20 7-3 3-11-5-11-2 0-3-1-3-3-1-2-2-3-4-3l-4-2-3-2-3-2-3-2c-2 0-3-1-3-3 0-3-5-6-7-4-1 2-2 60 0 62 1 2 6 2 8 0zm-739-32 4-1c1 0 3-1 3-3s2-3 4-3l4-1 5-3c1-1 3-3 3-5s1-3 3-3c4 0 11-4 11-7l2-2 4-2c0-2 2-4 3-5 5-6 2-6-25-6h-25l-3 3c-2 4-2 11 0 12l1 13 1 13c1 2 4 2 5 0zm313-50c20-1 24-3 18-8-2-1-2-3-2-4 2-3 1-6 0-7l-3-11c0-8-1-11-3-13l-3-3-9 1-11 3-10 3-9 3h-4c-2 0-5 0-8 2s-6 2-7 2c-4-1-9 0-9 3 0 1-3 2-8 2l-9 3c-1 1-12 5-17 5l-3 2-5 2-5 2-4 2c-3 0-4 1-6 3-2 5 0 7 5 7l4 2c1 1 79 0 108-1zm118-1h42l1-12 1-12c1 0 2-3 1-9-1-8-1-9 1-9 3 0 3-3 1-12l-1-6h-28c-16 0-30 1-30 2l-26 1-24 2-3 2-3 1 1 27v26l8 1h13l46-2zm187 0c10-4 19-28 10-30-2 0-5-2-5-3l-16-4c-9-2-14-4-14-5 0-2-9-4-13-2l-4-1-14-3-14-3c0-1-3-2-8-1h-7v53l22 1c28 1 57 0 63-2zm-95-28V50h-18v3c0 2-1 3-2 3-3 0-4 4-2 7s1 10-1 11-3 5-1 7c2 1 2 11 0 11-2 1-2 9 0 12l12 1h12z"/>
</svg>
